<?xml version="1.0" encoding="UTF-8" standalone="no"?>
<!-- Created with Inkscape (http://www.inkscape.org/) -->

<svg
   xmlns:dc="http://purl.org/dc/elements/1.1/"
   xmlns:cc="http://creativecommons.org/ns#"
   xmlns:rdf="http://www.w3.org/1999/02/22-rdf-syntax-ns#"
   xmlns:svg="http://www.w3.org/2000/svg"
   xmlns="http://www.w3.org/2000/svg"
   xmlns:sodipodi="http://sodipodi.sourceforge.net/DTD/sodipodi-0.dtd"
   xmlns:inkscape="http://www.inkscape.org/namespaces/inkscape"
   width="992.12598"
   height="496.06299"
   id="svg2"
   version="1.1"
   inkscape:version="0.48.4 r9939"
   sodipodi:docname="high-level-architecture.svg">
  <defs
     id="defs4">
    <marker
       inkscape:stockid="Arrow2Send"
       orient="auto"
       refY="0"
       refX="0"
       id="Arrow2Send"
       style="overflow:visible">
      <path
         id="path3822"
         style="fill-rule:evenodd;stroke-width:0.625;stroke-linejoin:round"
         d="M 8.7185878,4.0337352 -2.2072895,0.01601326 8.7185884,-4.0017078 c -1.7454984,2.3720609 -1.7354408,5.6174519 -6e-7,8.035443 z"
         transform="matrix(-0.3,0,0,-0.3,0.69,0)"
         inkscape:connector-curvature="0" />
    </marker>
    <marker
       inkscape:stockid="Arrow2Lend"
       orient="auto"
       refY="0"
       refX="0"
       id="Arrow2Lend"
       style="overflow:visible">
      <path
         id="path3810"
         style="fill-rule:evenodd;stroke-width:0.625;stroke-linejoin:round"
         d="M 8.7185878,4.0337352 -2.2072895,0.01601326 8.7185884,-4.0017078 c -1.7454984,2.3720609 -1.7354408,5.6174519 -6e-7,8.035443 z"
         transform="matrix(-1.1,0,0,-1.1,-1.1,0)"
         inkscape:connector-curvature="0" />
    </marker>
    <marker
       inkscape:stockid="Arrow2Mend"
       orient="auto"
       refY="0"
       refX="0"
       id="Arrow2Mend"
       style="overflow:visible">
      <path
         id="path3816"
         style="fill-rule:evenodd;stroke-width:0.625;stroke-linejoin:round"
         d="M 8.7185878,4.0337352 -2.2072895,0.01601326 8.7185884,-4.0017078 c -1.7454984,2.3720609 -1.7354408,5.6174519 -6e-7,8.035443 z"
         transform="scale(-0.6,-0.6)"
         inkscape:connector-curvature="0" />
    </marker>
    <marker
       inkscape:stockid="Arrow1Lend"
       orient="auto"
       refY="0"
       refX="0"
       id="Arrow1Lend"
       style="overflow:visible">
      <path
         id="path3792"
         d="M 0,0 5,-5 -12.5,0 5,5 0,0 z"
         style="fill-rule:evenodd;stroke:#000000;stroke-width:1pt"
         transform="matrix(-0.8,0,0,-0.8,-10,0)"
         inkscape:connector-curvature="0" />
    </marker>
    <marker
       inkscape:stockid="Arrow2Send"
       orient="auto"
       refY="0"
       refX="0"
       id="Arrow2Send-8"
       style="overflow:visible">
      <path
         inkscape:connector-curvature="0"
         id="path3822-9"
         style="fill-rule:evenodd;stroke-width:0.625;stroke-linejoin:round"
         d="M 8.7185878,4.0337352 -2.2072895,0.01601326 8.7185884,-4.0017078 c -1.7454984,2.3720609 -1.7354408,5.6174519 -6e-7,8.035443 z"
         transform="matrix(-0.3,0,0,-0.3,0.69,0)" />
    </marker>
    <marker
       inkscape:stockid="Arrow2Send"
       orient="auto"
       refY="0"
       refX="0"
       id="Arrow2Send-8-0"
       style="overflow:visible">
      <path
         inkscape:connector-curvature="0"
         id="path3822-9-1"
         style="fill-rule:evenodd;stroke-width:0.625;stroke-linejoin:round"
         d="M 8.7185878,4.0337352 -2.2072895,0.01601326 8.7185884,-4.0017078 c -1.7454984,2.3720609 -1.7354408,5.6174519 -6e-7,8.035443 z"
         transform="matrix(-0.3,0,0,-0.3,0.69,0)" />
    </marker>
    <marker
       inkscape:stockid="Arrow2Send"
       orient="auto"
       refY="0"
       refX="0"
       id="Arrow2Send-4"
       style="overflow:visible">
      <path
         inkscape:connector-curvature="0"
         id="path3822-7"
         style="fill-rule:evenodd;stroke-width:0.625;stroke-linejoin:round"
         d="M 8.7185878,4.0337352 -2.2072895,0.01601326 8.7185884,-4.0017078 c -1.7454984,2.3720609 -1.7354408,5.6174519 -6e-7,8.035443 z"
         transform="matrix(-0.3,0,0,-0.3,0.69,0)" />
    </marker>
    <marker
       inkscape:stockid="Arrow2Send"
       orient="auto"
       refY="0"
       refX="0"
       id="marker5712"
       style="overflow:visible">
      <path
         inkscape:connector-curvature="0"
         id="path5714"
         style="fill-rule:evenodd;stroke-width:0.625;stroke-linejoin:round"
         d="M 8.7185878,4.0337352 -2.2072895,0.01601326 8.7185884,-4.0017078 c -1.7454984,2.3720609 -1.7354408,5.6174519 -6e-7,8.035443 z"
         transform="matrix(-0.3,0,0,-0.3,0.69,0)" />
    </marker>
    <marker
       inkscape:stockid="Arrow2Send"
       orient="auto"
       refY="0"
       refX="0"
       id="Arrow2Send-0"
       style="overflow:visible">
      <path
         inkscape:connector-curvature="0"
         id="path3822-1"
         style="fill-rule:evenodd;stroke-width:0.625;stroke-linejoin:round"
         d="M 8.7185878,4.0337352 -2.2072895,0.01601326 8.7185884,-4.0017078 c -1.7454984,2.3720609 -1.7354408,5.6174519 -6e-7,8.035443 z"
         transform="matrix(-0.3,0,0,-0.3,0.69,0)" />
    </marker>
    <marker
       inkscape:stockid="Arrow2Send"
       orient="auto"
       refY="0"
       refX="0"
       id="marker5712-7"
       style="overflow:visible">
      <path
         inkscape:connector-curvature="0"
         id="path5714-5"
         style="fill-rule:evenodd;stroke-width:0.625;stroke-linejoin:round"
         d="M 8.7185878,4.0337352 -2.2072895,0.01601326 8.7185884,-4.0017078 c -1.7454984,2.3720609 -1.7354408,5.6174519 -6e-7,8.035443 z"
         transform="matrix(-0.3,0,0,-0.3,0.69,0)" />
    </marker>
    <marker
       inkscape:stockid="Arrow2Send"
       orient="auto"
       refY="0"
       refX="0"
       id="Arrow2Send-5"
       style="overflow:visible">
      <path
         inkscape:connector-curvature="0"
         id="path3822-0"
         style="fill-rule:evenodd;stroke-width:0.625;stroke-linejoin:round"
         d="M 8.7185878,4.0337352 -2.2072895,0.01601326 8.7185884,-4.0017078 c -1.7454984,2.3720609 -1.7354408,5.6174519 -6e-7,8.035443 z"
         transform="matrix(-0.3,0,0,-0.3,0.69,0)" />
    </marker>
    <marker
       inkscape:stockid="Arrow2Send"
       orient="auto"
       refY="0"
       refX="0"
       id="marker5712-4"
       style="overflow:visible">
      <path
         inkscape:connector-curvature="0"
         id="path5714-52"
         style="fill-rule:evenodd;stroke-width:0.625;stroke-linejoin:round"
         d="M 8.7185878,4.0337352 -2.2072895,0.01601326 8.7185884,-4.0017078 c -1.7454984,2.3720609 -1.7354408,5.6174519 -6e-7,8.035443 z"
         transform="matrix(-0.3,0,0,-0.3,0.69,0)" />
    </marker>
    <marker
       inkscape:stockid="Arrow2Send"
       orient="auto"
       refY="0"
       refX="0"
       id="Arrow2Send-2"
       style="overflow:visible">
      <path
         id="path3822-2"
         style="fill-rule:evenodd;stroke-width:0.625;stroke-linejoin:round"
         d="M 8.7185878,4.0337352 -2.2072895,0.01601326 8.7185884,-4.0017078 c -1.7454984,2.3720609 -1.7354408,5.6174519 -6e-7,8.035443 z"
         transform="matrix(-0.3,0,0,-0.3,0.69,0)"
         inkscape:connector-curvature="0" />
    </marker>
    <marker
       inkscape:stockid="Arrow2Send"
       orient="auto"
       refY="0"
       refX="0"
       id="Arrow2Send-7"
       style="overflow:visible">
      <path
         id="path3822-99"
         style="fill-rule:evenodd;stroke-width:0.625;stroke-linejoin:round"
         d="M 8.7185878,4.0337352 -2.2072895,0.01601326 8.7185884,-4.0017078 c -1.7454984,2.3720609 -1.7354408,5.6174519 -6e-7,8.035443 z"
         transform="matrix(-0.3,0,0,-0.3,0.69,0)"
         inkscape:connector-curvature="0" />
    </marker>
    <marker
       inkscape:stockid="Arrow2Send"
       orient="auto"
       refY="0"
       refX="0"
       id="Arrow2Send-49"
       style="overflow:visible">
      <path
         id="path3822-3"
         style="fill-rule:evenodd;stroke-width:0.625;stroke-linejoin:round"
         d="M 8.7185878,4.0337352 -2.2072895,0.01601326 8.7185884,-4.0017078 c -1.7454984,2.3720609 -1.7354408,5.6174519 -6e-7,8.035443 z"
         transform="matrix(-0.3,0,0,-0.3,0.69,0)"
         inkscape:connector-curvature="0" />
    </marker>
    <marker
       inkscape:stockid="Arrow2Send"
       orient="auto"
       refY="0"
       refX="0"
       id="Arrow2Send-8-9"
       style="overflow:visible">
      <path
         inkscape:connector-curvature="0"
         id="path3822-9-7"
         style="fill-rule:evenodd;stroke-width:0.625;stroke-linejoin:round"
         d="M 8.7185878,4.0337352 -2.2072895,0.01601326 8.7185884,-4.0017078 c -1.7454984,2.3720609 -1.7354408,5.6174519 -6e-7,8.035443 z"
         transform="matrix(-0.3,0,0,-0.3,0.69,0)" />
    </marker>
  </defs>
  <sodipodi:namedview
     id="base"
     pagecolor="#ffffff"
     bordercolor="#666666"
     borderopacity="1.0"
     inkscape:pageopacity="0.0"
     inkscape:pageshadow="2"
     inkscape:zoom="0.98994949"
     inkscape:cx="391.31588"
     inkscape:cy="178.42185"
     inkscape:document-units="px"
     inkscape:current-layer="layer1"
     showgrid="true"
     units="cm"
     inkscape:object-nodes="true"
     inkscape:snap-grids="true"
     inkscape:object-paths="false"
     fit-margin-top="2"
     fit-margin-right="2"
     fit-margin-left="2"
     fit-margin-bottom="2"
     inkscape:window-width="1161"
     inkscape:window-height="701"
     inkscape:window-x="109"
     inkscape:window-y="27"
     inkscape:window-maximized="0">
    <inkscape:grid
       units="cm"
       empspacing="6"
       visible="true"
       enabled="true"
       snapvisiblegridlinesonly="true"
       spacingx="0.5cm"
       spacingy="0.5cm"
       type="xygrid"
       id="grid2985"
       originx="-1.9647223cm"
       originy="-11.964721cm" />
  </sodipodi:namedview>
  <metadata
     id="metadata7">
    <rdf:RDF>
      <cc:Work
         rdf:about="">
        <dc:format>image/svg+xml</dc:format>
        <dc:type
           rdf:resource="http://purl.org/dc/dcmitype/StillImage" />
        <dc:title></dc:title>
      </cc:Work>
    </rdf:RDF>
  </metadata>
  <g
     inkscape:label="Layer 1"
     inkscape:groupmode="layer"
     id="layer1"
     transform="translate(-69.616143,-132.35101)">
    <rect
       style="fill:none;stroke:#000000;stroke-width:2.5;stroke-miterlimit:4;stroke-opacity:1;stroke-dasharray:7.5, 7.5;stroke-dashoffset:0"
       id="rect4983-5"
       width="283.46423"
       height="336.61417"
       x="726.37793"
       y="237.40018" />
    <path
       sodipodi:type="arc"
       style="fill:none;stroke:#000000;stroke-width:2.5;stroke-miterlimit:4;stroke-opacity:1;stroke-dasharray:none;stroke-dashoffset:0"
       id="path2993"
       sodipodi:cx="230.31496"
       sodipodi:cy="283.46451"
       sodipodi:rx="88.582672"
       sodipodi:ry="70.866142"
       d="m 318.89763,283.46451 c 0,39.13829 -39.65981,70.86614 -88.58267,70.86614 -48.92286,0 -88.58268,-31.72785 -88.58268,-70.86614 0,-39.13829 39.65982,-70.86614 88.58268,-70.86614 48.92286,0 88.58267,31.72785 88.58267,70.86614 z"
       transform="translate(0,-10.631225)" />
    <text
       xml:space="preserve"
       style="font-size:36px;font-style:normal;font-variant:normal;font-weight:normal;font-stretch:normal;line-height:125%;letter-spacing:0px;word-spacing:0px;fill:#000000;fill-opacity:1;stroke:none;font-family:Calibri;-inkscape-font-specification:Calibri"
       x="230.10402"
       y="261.82938"
       id="text3763"
       sodipodi:linespacing="125%"><tspan
         sodipodi:role="line"
         x="230.10402"
         y="261.82938"
         id="tspan3767"
         style="text-align:center;text-anchor:middle">Domain</tspan><tspan
         sodipodi:role="line"
         x="230.10402"
         y="306.82938"
         style="text-align:center;text-anchor:middle"
         id="tspan3771">Model</tspan></text>
    <rect
       style="fill:none;stroke:#000000;stroke-width:2.5;stroke-miterlimit:4;stroke-opacity:1;stroke-dasharray:none;stroke-dashoffset:0"
       id="rect3773"
       width="159.44882"
       height="106.29921"
       x="159.44882"
       y="432.2821" />
    <text
       xml:space="preserve"
       style="font-size:36px;font-style:normal;font-variant:normal;font-weight:normal;font-stretch:normal;text-align:center;line-height:125%;letter-spacing:0px;word-spacing:0px;text-anchor:middle;fill:#000000;fill-opacity:1;stroke:none;font-family:Calibri;-inkscape-font-specification:Calibri"
       x="238.38222"
       y="475.00787"
       id="text3775"
       sodipodi:linespacing="125%"><tspan
         sodipodi:role="line"
         id="tspan3777"
         x="238.38222"
         y="475.00787">Choice</tspan><tspan
         sodipodi:role="line"
         x="238.38222"
         y="520.00787"
         id="tspan3779">Poetics</tspan></text>
    <path
       style="color:#000000;fill:none;stroke:#000000;stroke-width:2.5;stroke-linecap:butt;stroke-linejoin:miter;stroke-miterlimit:4;stroke-opacity:1;stroke-dasharray:none;stroke-dashoffset:0;marker:none;marker-end:url(#Arrow2Mend);visibility:visible;display:inline;overflow:visible;enable-background:accumulate"
       d="m 318.89765,485.43171 53.1496,0 0,-70.86615 70.86615,0"
       id="path3781"
       inkscape:connector-curvature="0"
       sodipodi:nodetypes="cccc" />
    <path
       style="color:#000000;fill:none;stroke:#000000;stroke-width:2.5;stroke-linecap:butt;stroke-linejoin:miter;stroke-miterlimit:4;stroke-opacity:1;stroke-dasharray:none;stroke-dashoffset:0;marker:none;marker-end:url(#Arrow2Mend);visibility:visible;display:inline;overflow:visible;enable-background:accumulate"
       d="m 318.89764,283.46451 53.1496,0 0,70.86614 70.86615,0"
       id="path3783"
       inkscape:connector-curvature="0"
       transform="translate(0,-10.631225)" />
    <rect
       style="fill:none;stroke:#000000;stroke-width:2.5;stroke-linejoin:miter;stroke-miterlimit:4;stroke-opacity:1;stroke-dasharray:none;stroke-dashoffset:0"
       id="rect4789"
       width="194.88188"
       height="177.16536"
       x="442.91339"
       y="301.18103"
       transform="translate(0,-10.631225)" />
    <text
       xml:space="preserve"
       style="font-size:36px;font-style:normal;font-variant:normal;font-weight:normal;font-stretch:normal;text-align:center;line-height:125%;letter-spacing:0px;word-spacing:0px;text-anchor:middle;fill:#000000;fill-opacity:1;stroke:none;font-family:Calibri;-inkscape-font-specification:Calibri"
       x="539.8797"
       y="390.49673"
       id="text4791"
       sodipodi:linespacing="125%"><tspan
         sodipodi:role="line"
         id="tspan4793"
         x="539.8797"
         y="390.49673">Generator</tspan></text>
    <path
       style="color:#000000;fill:none;stroke:#000000;stroke-width:2.5;stroke-linecap:butt;stroke-linejoin:miter;stroke-miterlimit:4;stroke-opacity:1;stroke-dasharray:none;stroke-dashoffset:0;marker:none;marker-end:url(#Arrow2Mend);visibility:visible;display:inline;overflow:visible;enable-background:accumulate"
       d="m 637.79528,389.76372 70.86614,0"
       id="path4795"
       inkscape:connector-curvature="0"
       transform="translate(0,-10.631225)" />
    <rect
       style="fill:#ffffff;fill-opacity:1;stroke:#000000;stroke-width:2.5;stroke-miterlimit:4;stroke-opacity:1;stroke-dasharray:7.5, 7.5;stroke-dashoffset:0"
       id="rect4983"
       width="283.46475"
       height="336.61407"
       x="708.66144"
       y="230.31487"
       transform="translate(0,-10.631225)" />
    <text
       xml:space="preserve"
       style="font-size:36px;font-style:normal;font-variant:normal;font-weight:normal;font-stretch:normal;text-align:center;line-height:125%;letter-spacing:0px;word-spacing:0px;text-anchor:middle;fill:#000000;fill-opacity:1;stroke:none;font-family:Calibri;-inkscape-font-specification:Calibri"
       x="849.60278"
       y="201.9671"
       id="text4791-2"
       sodipodi:linespacing="125%"><tspan
         sodipodi:role="line"
         id="tspan4793-0"
         x="849.60278"
         y="201.9671">Branching Stories</tspan></text>
    <g
       id="g5994"
       transform="translate(-13.999893,0)">
      <path
         transform="translate(6.2832031e-6,-10.631225)"
         d="m 885.82677,283.46451 c 0,9.78457 -7.93197,17.71653 -17.71654,17.71653 -9.78457,0 -17.71654,-7.93196 -17.71654,-17.71653 0,-9.78457 7.93197,-17.71654 17.71654,-17.71654 9.78457,0 17.71654,7.93197 17.71654,17.71654 z"
         sodipodi:ry="17.716536"
         sodipodi:rx="17.716536"
         sodipodi:cy="283.46451"
         sodipodi:cx="868.11023"
         id="path5006"
         style="fill:#aaff99;fill-opacity:1;stroke:#000000;stroke-width:2.5;stroke-miterlimit:4;stroke-opacity:1;stroke-dasharray:none;stroke-dashoffset:0"
         sodipodi:type="arc" />
      <path
         d="m 885.82677,283.46451 c 0,9.78457 -7.93197,17.71653 -17.71654,17.71653 -9.78457,0 -17.71654,-7.93196 -17.71654,-17.71653 0,-9.78457 7.93197,-17.71654 17.71654,-17.71654 9.78457,0 17.71654,7.93197 17.71654,17.71654 z"
         sodipodi:ry="17.716536"
         sodipodi:rx="17.716536"
         sodipodi:cy="283.46451"
         sodipodi:cx="868.11023"
         id="path5006-8"
         style="fill:#ffff99;fill-opacity:1;stroke:#000000;stroke-width:2.5;stroke-miterlimit:4;stroke-opacity:1;stroke-dasharray:none;stroke-dashoffset:0"
         sodipodi:type="arc"
         transform="translate(-35.433058,42.51838)" />
      <path
         d="m 885.82677,283.46451 c 0,9.78457 -7.93197,17.71653 -17.71654,17.71653 -9.78457,0 -17.71654,-7.93196 -17.71654,-17.71653 0,-9.78457 7.93197,-17.71654 17.71654,-17.71654 9.78457,0 17.71654,7.93197 17.71654,17.71654 z"
         sodipodi:ry="17.716536"
         sodipodi:rx="17.716536"
         sodipodi:cy="283.46451"
         sodipodi:cx="868.11023"
         id="path5006-0"
         style="fill:#bbccff;fill-opacity:1;stroke:#000000;stroke-width:2.5;stroke-miterlimit:4;stroke-opacity:1;stroke-dasharray:none;stroke-dashoffset:0"
         sodipodi:type="arc"
         transform="translate(-35.433058,95.667986)" />
      <path
         d="m 885.82677,283.46451 c 0,9.78457 -7.93197,17.71653 -17.71654,17.71653 -9.78457,0 -17.71654,-7.93196 -17.71654,-17.71653 0,-9.78457 7.93197,-17.71654 17.71654,-17.71654 9.78457,0 17.71654,7.93197 17.71654,17.71654 z"
         sodipodi:ry="17.716536"
         sodipodi:rx="17.716536"
         sodipodi:cy="283.46451"
         sodipodi:cx="868.11023"
         id="path5006-00"
         style="fill:#aaff99;fill-opacity:1;stroke:#000000;stroke-width:2.5;stroke-miterlimit:4;stroke-opacity:1;stroke-dasharray:none;stroke-dashoffset:0"
         sodipodi:type="arc"
         transform="translate(-70.866129,148.81759)" />
      <path
         d="m 885.82677,283.46451 c 0,9.78457 -7.93197,17.71653 -17.71654,17.71653 -9.78457,0 -17.71654,-7.93196 -17.71654,-17.71653 0,-9.78457 7.93197,-17.71654 17.71654,-17.71654 9.78457,0 17.71654,7.93197 17.71654,17.71654 z"
         sodipodi:ry="17.716536"
         sodipodi:rx="17.716536"
         sodipodi:cy="283.46451"
         sodipodi:cx="868.11023"
         id="path5006-7"
         style="fill:#ffff99;fill-opacity:1;stroke:#000000;stroke-width:2.5;stroke-miterlimit:4;stroke-opacity:1;stroke-dasharray:none;stroke-dashoffset:0"
         sodipodi:type="arc"
         transform="translate(2.3592529e-6,148.8176)" />
      <path
         d="m 885.82677,283.46451 c 0,9.78457 -7.93197,17.71653 -17.71654,17.71653 -9.78457,0 -17.71654,-7.93196 -17.71654,-17.71653 0,-9.78457 7.93197,-17.71654 17.71654,-17.71654 9.78457,0 17.71654,7.93197 17.71654,17.71654 z"
         sodipodi:ry="17.716536"
         sodipodi:rx="17.716536"
         sodipodi:cy="283.46451"
         sodipodi:cx="868.11023"
         id="path5006-3"
         style="fill:#ffbb99;fill-opacity:1;stroke:#000000;stroke-width:2.5;stroke-miterlimit:4;stroke-opacity:1;stroke-dasharray:none;stroke-dashoffset:0"
         sodipodi:type="arc"
         transform="translate(35.433084,201.9672)" />
      <path
         d="m 885.82677,283.46451 c 0,9.78457 -7.93197,17.71653 -17.71654,17.71653 -9.78457,0 -17.71654,-7.93196 -17.71654,-17.71653 0,-9.78457 7.93197,-17.71654 17.71654,-17.71654 9.78457,0 17.71654,7.93197 17.71654,17.71654 z"
         sodipodi:ry="17.716536"
         sodipodi:rx="17.716536"
         sodipodi:cy="283.46451"
         sodipodi:cx="868.11023"
         id="path5006-5"
         style="fill:#bbccff;fill-opacity:1;stroke:#000000;stroke-width:2.5;stroke-miterlimit:4;stroke-opacity:1;stroke-dasharray:none;stroke-dashoffset:0"
         sodipodi:type="arc"
         transform="translate(-35.433058,201.9672)" />
      <path
         d="m 885.82677,283.46451 c 0,9.78457 -7.93197,17.71653 -17.71654,17.71653 -9.78457,0 -17.71654,-7.93196 -17.71654,-17.71653 0,-9.78457 7.93197,-17.71654 17.71654,-17.71654 9.78457,0 17.71654,7.93197 17.71654,17.71654 z"
         sodipodi:ry="17.716536"
         sodipodi:rx="17.716536"
         sodipodi:cy="283.46451"
         sodipodi:cx="868.11023"
         id="path5006-34"
         style="fill:#bbccff;fill-opacity:1;stroke:#000000;stroke-width:2.5;stroke-miterlimit:4;stroke-opacity:1;stroke-dasharray:none;stroke-dashoffset:0"
         sodipodi:type="arc"
         transform="translate(35.433084,42.51838)" />
      <path
         d="m 885.82677,283.46451 c 0,9.78457 -7.93197,17.71653 -17.71654,17.71653 -9.78457,0 -17.71654,-7.93196 -17.71654,-17.71653 0,-9.78457 7.93197,-17.71654 17.71654,-17.71654 9.78457,0 17.71654,7.93197 17.71654,17.71654 z"
         sodipodi:ry="17.716536"
         sodipodi:rx="17.716536"
         sodipodi:cy="283.46451"
         sodipodi:cx="868.11023"
         id="path5006-2"
         style="fill:#ffbb99;fill-opacity:1;stroke:#000000;stroke-width:2.5;stroke-miterlimit:4;stroke-opacity:1;stroke-dasharray:none;stroke-dashoffset:0"
         sodipodi:type="arc"
         transform="translate(35.433083,95.667986)" />
      <path
         sodipodi:nodetypes="cc"
         inkscape:connector-curvature="0"
         id="path5082"
         d="m 858.84097,287.93443 -14.44308,20.53436"
         style="color:#000000;fill:none;stroke:#000000;stroke-width:2.5;stroke-linecap:butt;stroke-linejoin:miter;stroke-miterlimit:4;stroke-opacity:1;stroke-dasharray:none;stroke-dashoffset:0;marker:none;marker-end:url(#Arrow2Send);visibility:visible;display:inline;overflow:visible;enable-background:accumulate" />
      <path
         sodipodi:nodetypes="cc"
         inkscape:connector-curvature="0"
         id="path5082-1"
         d="m 877.83469,287.25381 14.44307,20.53436"
         style="color:#000000;fill:none;stroke:#000000;stroke-width:2.5;stroke-linecap:butt;stroke-linejoin:miter;stroke-miterlimit:4;stroke-opacity:1;stroke-dasharray:none;stroke-dashoffset:0;marker:none;marker-end:url(#Arrow2Send);visibility:visible;display:inline;overflow:visible;enable-background:accumulate" />
      <path
         inkscape:connector-curvature="0"
         id="path5484"
         d="m 832.67718,343.69943 0,16.20184"
         style="color:#000000;fill:none;stroke:#000000;stroke-width:2.5;stroke-linecap:butt;stroke-linejoin:miter;stroke-miterlimit:4;stroke-opacity:1;stroke-dasharray:none;stroke-dashoffset:0;marker:none;marker-end:url(#Arrow2Send-8);visibility:visible;display:inline;overflow:visible;enable-background:accumulate" />
      <path
         inkscape:connector-curvature="0"
         id="path5484-4"
         d="m 903.54332,343.69942 0,16.20185"
         style="color:#000000;fill:none;stroke:#000000;stroke-width:2.5;stroke-linecap:butt;stroke-linejoin:miter;stroke-miterlimit:4;stroke-opacity:1;stroke-dasharray:none;stroke-dashoffset:0;marker:none;marker-end:url(#Arrow2Send-8);visibility:visible;display:inline;overflow:visible;enable-background:accumulate" />
      <path
         sodipodi:nodetypes="cc"
         inkscape:connector-curvature="0"
         id="path5082-6"
         d="m 823.58581,395.3338 -14.44308,20.53436"
         style="color:#000000;fill:none;stroke:#000000;stroke-width:2.5;stroke-linecap:butt;stroke-linejoin:miter;stroke-miterlimit:4;stroke-opacity:1;stroke-dasharray:none;stroke-dashoffset:0;marker:none;marker-end:url(#Arrow2Send);visibility:visible;display:inline;overflow:visible;enable-background:accumulate" />
      <path
         sodipodi:nodetypes="cc"
         inkscape:connector-curvature="0"
         id="path5082-1-8"
         d="m 842.57953,394.65318 14.44307,20.53436"
         style="color:#000000;fill:none;stroke:#000000;stroke-width:2.5;stroke-linecap:butt;stroke-linejoin:miter;stroke-miterlimit:4;stroke-opacity:1;stroke-dasharray:none;stroke-dashoffset:0;marker:none;marker-end:url(#Arrow2Send);visibility:visible;display:inline;overflow:visible;enable-background:accumulate" />
      <path
         sodipodi:nodetypes="cc"
         inkscape:connector-curvature="0"
         id="path5082-8"
         d="m 859.22452,448.20839 -14.44308,20.53436"
         style="color:#000000;fill:none;stroke:#000000;stroke-width:2.5;stroke-linecap:butt;stroke-linejoin:miter;stroke-miterlimit:4;stroke-opacity:1;stroke-dasharray:none;stroke-dashoffset:0;marker:none;marker-end:url(#Arrow2Send);visibility:visible;display:inline;overflow:visible;enable-background:accumulate" />
      <path
         sodipodi:nodetypes="cc"
         inkscape:connector-curvature="0"
         id="path5082-1-4"
         d="m 878.21824,447.52777 14.44307,20.53436"
         style="color:#000000;fill:none;stroke:#000000;stroke-width:2.5;stroke-linecap:butt;stroke-linejoin:miter;stroke-miterlimit:4;stroke-opacity:1;stroke-dasharray:none;stroke-dashoffset:0;marker:none;marker-end:url(#Arrow2Send);visibility:visible;display:inline;overflow:visible;enable-background:accumulate" />
      <path
         sodipodi:nodetypes="cc"
         inkscape:connector-curvature="0"
         id="path5082-1-6"
         d="m 806.49741,448.05315 14.44307,20.53436"
         style="color:#000000;fill:none;stroke:#000000;stroke-width:2.5;stroke-linecap:butt;stroke-linejoin:miter;stroke-miterlimit:4;stroke-opacity:1;stroke-dasharray:none;stroke-dashoffset:0;marker:none;marker-end:url(#Arrow2Send);visibility:visible;display:inline;overflow:visible;enable-background:accumulate" />
    </g>
    <rect
       style="fill:#ffff99;fill-opacity:1;stroke:none"
       id="rect5789"
       width="17.716536"
       height="17.716536"
       x="283.46457"
       y="269.9761" />
    <rect
       style="fill:#bbccff;fill-opacity:1;stroke:none"
       id="rect5791"
       width="17.716536"
       height="17.716536"
       x="153.73454"
       y="262.25958" />
    <rect
       style="fill:#aaff99;fill-opacity:1;stroke:none"
       id="rect5793"
       width="17.716536"
       height="17.716536"
       x="226.02925"
       y="213.96935" />
    <path
       style="color:#000000;fill:none;stroke:#000000;stroke-width:2.5;stroke-linecap:butt;stroke-linejoin:miter;stroke-miterlimit:4;stroke-opacity:1;stroke-dasharray:none;stroke-dashoffset:0;marker:none;marker-end:url(#Arrow2Send);visibility:visible;display:inline;overflow:visible;enable-background:accumulate"
       d="m 310.03732,503.10015 -14.44308,20.53436"
       id="path5082-6-5"
       inkscape:connector-curvature="0"
       sodipodi:nodetypes="cc" />
    <path
       style="color:#000000;fill:none;stroke:#000000;stroke-width:2.5;stroke-linecap:butt;stroke-linejoin:miter;stroke-miterlimit:4;stroke-opacity:1;stroke-dasharray:none;stroke-dashoffset:0;marker:none;marker-end:url(#Arrow2Send);visibility:visible;display:inline;overflow:visible;enable-background:accumulate"
       d="m 185.7516,485.95728 -14.44308,20.53436"
       id="path5082-6-4"
       inkscape:connector-curvature="0"
       sodipodi:nodetypes="cc" />
    <path
       style="color:#000000;fill:none;stroke:#000000;stroke-width:2.5;stroke-linecap:butt;stroke-linejoin:miter;stroke-miterlimit:4;stroke-opacity:1;stroke-dasharray:none;stroke-dashoffset:0;marker:none;marker-end:url(#Arrow2Send);visibility:visible;display:inline;overflow:visible;enable-background:accumulate"
       d="m 286.32801,442.39277 14.44307,20.53436"
       id="path5082-1-8-7"
       inkscape:connector-curvature="0"
       sodipodi:nodetypes="cc" />
    <path
       style="color:#000000;fill:none;stroke:#000000;stroke-width:2.5;stroke-linecap:butt;stroke-linejoin:miter;stroke-miterlimit:4;stroke-opacity:1;stroke-dasharray:none;stroke-dashoffset:0;marker:none;marker-end:url(#Arrow2Send-8);visibility:visible;display:inline;overflow:visible;enable-background:accumulate"
       d="m 175.31841,447.10499 0,26.20184"
       id="path5484-3"
       inkscape:connector-curvature="0"
       sodipodi:nodetypes="cc" />
    <path
       sodipodi:type="spiral"
       style="fill:none;stroke:#000000;stroke-width:1px;stroke-linecap:butt;stroke-linejoin:miter;stroke-opacity:1"
       id="path5896"
       sodipodi:cx="514.28571"
       sodipodi:cy="197.49156"
       sodipodi:expansion="1"
       sodipodi:revolution="3"
       sodipodi:radius="29.416086"
       sodipodi:argument="-18.342457"
       sodipodi:t0="0"
       d="m 514.28571,197.49156 c 1.28927,0.71627 -0.32943,2.0913 -1.19048,2.14286 -2.33339,0.13973 -3.48912,-2.56998 -3.09524,-4.52381 0.70457,-3.49495 4.6915,-5.01991 7.85715,-4.04762 4.64571,1.42689 6.58521,6.83787 4.99999,11.19048 -2.11284,5.80135 -8.99255,8.16456 -14.52381,5.95237 -6.96054,-2.78381 -9.75105,-11.15106 -6.90475,-17.85714 3.44724,-8.12197 13.3117,-11.34164 21.19048,-7.85713 9.28486,4.10637 12.9348,15.47368 8.80951,24.52381 -4.76282,10.44874 -17.63654,14.52969 -27.85715,9.76189 -11.61331,-5.41748 -16.12578,-19.80002 -10.71427,-31.19048 6.0709,-12.77838 21.96396,-17.72274 34.52382,-11.66665 13.94382,6.72341 19.32035,24.12825 12.61902,37.85715"
       transform="translate(69.616143,132.35101)" />
    <path
       sodipodi:type="spiral"
       style="fill:none;stroke:#000000;stroke-width:1px;stroke-linecap:butt;stroke-linejoin:miter;stroke-opacity:1"
       id="path5898"
       sodipodi:cx="414.28571"
       sodipodi:cy="297.49155"
       sodipodi:expansion="1"
       sodipodi:revolution="3"
       sodipodi:radius="28.284271"
       sodipodi:argument="-21.20575"
       sodipodi:t0="0"
       d="m 414.28571,297.49155 c -1.00277,-1.00277 0.85698,-1.84644 1.66666,-1.66667 2.1942,0.48718 2.54693,3.29768 1.66667,5 -1.57459,3.04506 -5.66344,3.40179 -8.33334,1.66666 -3.91818,-2.54637 -4.28198,-8.06129 -1.66666,-11.66667 3.48582,-4.80539 10.47055,-5.17297 15.00001,-1.66665 5.69986,4.41235 6.06955,12.88522 1.66665,18.33334 -5.3325,6.59839 -15.30296,6.96935 -21.66667,1.66664 -7.49942,-6.24906 -7.8712,-17.7226 -1.66665,-25 7.16341,-8.40205 20.14352,-8.77439 28.33334,-1.66664 9.30579,8.07628 9.67853,22.56532 1.66664,31.66667 -8.98814,10.21033 -24.98779,10.58336 -35,1.66663 -11.11546,-9.89926 -11.48871,-27.41073 -1.66664,-38.33333"
       transform="translate(69.616143,132.35101)" />
  </g>
</svg>
